<?xml version="1.0" encoding="UTF-8" standalone="no"?>
<svg width="42px" height="42px" viewBox="0 0 42 42" version="1.1" xmlns="http://www.w3.org/2000/svg" xmlns:xlink="http://www.w3.org/1999/xlink">
    <!-- Generator: Sketch 3.6.1 (26313) - http://www.bohemiancoding.com/sketch -->
    <title>LoaderPieSlice</title>
    <desc>Created with Sketch.</desc>
    <defs></defs>
    <g id="Page-1" stroke="none" stroke-width="1" fill="none" fill-rule="evenodd">
        <g id="iPhone-6" transform="translate(-290.000000, -292.000000)">
            <g id="LoaderPieSlice" transform="translate(290.000000, 292.000000)">
                <path d="M24,42 L32,42 C32,24.326888 17.673112,10 0,10 L0,18 C1.1045695,18 2,18.8954305 2,20 C2,21.1045695 1.1045695,22 0,22 L0,42 L20,42 C20,40.8954305 20.8954305,40 22,40 C23.1045695,40 24,40.8954305 24,42 Z" id="Combined-Shape" fill="#FFFFFF"></path>
                <path d="M0,22 C1.1045695,22 2,21.1045695 2,20 C2,18.8954305 1.1045695,18 0,18 C13.254834,18 24,28.745166 24,42 C24,40.8954305 23.1045695,40 22,40 C20.8954305,40 20,40.8954305 20,42 C20,30.954305 11.045695,22 0,22 Z" id="Combined-Shape" fill="#E6EAF0"></path>
            </g>
        </g>
    </g>
</svg>